<svg width="22" height="15" viewBox="0 0 22 15" fill="none" xmlns="http://www.w3.org/2000/svg">
<path d="M20.9453 2.38281C20.7109 1.44531 19.9688 0.703125 19.0703 0.46875C17.3906 0 10.75 0 10.75 0C10.75 0 4.07031 0 2.39062 0.46875C1.49219 0.703125 0.75 1.44531 0.515625 2.38281C0.046875 4.02344 0.046875 7.53906 0.046875 7.53906C0.046875 7.53906 0.046875 11.0156 0.515625 12.6953C0.75 13.6328 1.49219 14.3359 2.39062 14.5703C4.07031 15 10.75 15 10.75 15C10.75 15 17.3906 15 19.0703 14.5703C19.9688 14.3359 20.7109 13.6328 20.9453 12.6953C21.4141 11.0156 21.4141 7.53906 21.4141 7.53906C21.4141 7.53906 21.4141 4.02344 20.9453 2.38281ZM8.5625 10.7031V4.375L14.1094 7.53906L8.5625 10.7031Z" fill="#8492A6"/>
</svg>
