<svg width="23" height="27" viewBox="0 0 23 27" fill="none" xmlns="http://www.w3.org/2000/svg">
<path d="M19.1328 14.5117C19.1328 14.6289 18.957 18.0859 22.7656 19.9023C22.0625 22.0703 19.6016 26.875 16.7305 26.875C15.0898 26.875 14.1523 25.8203 12.2773 25.8203C10.3438 25.8203 9.28906 26.875 7.82422 26.875C5.01172 26.9922 2.31641 21.7188 1.55469 19.5508C0.96875 17.9102 0.734375 16.3281 0.734375 14.8047C0.734375 9.58984 4.19141 7.07031 7.47266 7.01172C9.05469 7.01172 11.0469 8.125 11.9258 8.125C12.7461 8.125 15.0312 6.77734 17.1406 6.95312C19.3086 7.12891 20.9492 7.94922 22.0625 9.53125C20.1289 10.7617 19.1328 12.3438 19.1328 14.5117ZM15.8516 4.90234C14.6797 6.25 13.2734 7.01172 11.75 6.89453C11.6328 5.3125 12.2188 3.84766 13.2734 2.67578C14.2109 1.62109 15.8516 0.742188 17.2578 0.625C17.2578 1.26953 17.4336 3.02734 15.8516 4.90234Z" fill="#8492A6"/>
</svg>
