<svg width="28" height="16" viewBox="0 0 28 16" fill="none" xmlns="http://www.w3.org/2000/svg">
<path d="M20.1875 12.1562C20.7969 12.1562 21.3125 11.6875 21.3125 11.0312C21.3125 10.4219 20.7969 9.90625 20.1875 9.90625C19.5781 9.90625 19.0625 10.4219 19.0625 11.0312C19.0625 11.6875 19.5781 12.1562 20.1875 12.1562ZM7.76562 12.1562C8.375 12.1562 8.89062 11.6875 8.89062 11.0312C8.89062 10.4219 8.375 9.90625 7.76562 9.90625C7.15625 9.90625 6.64062 10.4219 6.64062 11.0312C6.64062 11.6875 7.15625 12.1562 7.76562 12.1562ZM20.6094 5.40625C24.4531 7.51562 27.0781 11.4062 27.5 16H0.5C0.875 11.4062 3.5 7.51562 7.34375 5.40625L5.09375 1.51562C5 1.375 5 1.1875 5.09375 1.04688C5.1875 0.859375 5.32812 0.765625 5.51562 0.765625C5.70312 0.765625 5.84375 0.90625 5.9375 1.04688L8.1875 4.98438C11.8906 3.34375 16.0625 3.34375 19.7656 4.98438L22.0156 1.04688C22.1094 0.90625 22.25 0.765625 22.4375 0.765625C22.625 0.765625 22.7656 0.859375 22.8594 1.04688C22.9531 1.1875 22.9531 1.375 22.8594 1.51562L20.6094 5.40625Z" fill="#8492A6"/>
</svg>
